<?xml version="1.0" encoding="UTF-8"?>
<svg id="Ebene_1" data-name="Ebene 1" xmlns="http://www.w3.org/2000/svg" viewBox="0 0 425.2 317.48">
  <defs>
    <style>
      .cls-1 {
        fill: #43a0d0;
      }

      .cls-1, .cls-2 {
        stroke-width: 0px;
      }

      .cls-2 {
        fill: #69b75e;
      }
    </style>
  </defs>
  <path class="cls-1" d="m186.93,224.26c18.99-6.64,36.32-21.34,51.5-43.69,1.73-2.55,3.41-5.14,5.19-7.88,9.59-14.77,19.51-30.05,36.53-37.79,13.47-6.12,28.16-5.77,40.75-4.61,2.58.24,5.15.51,7.73.79,9.58,1.03,18.62,2,27.38.91,2.76-.34,5.38-.91,7.83-1.69C350.53,59.62,288.48,6.15,213.93,6.15c-84.27,0-152.59,68.32-152.59,152.59,0,11.9,1.36,23.48,3.94,34.6,17.75,10.92,36.1,21.64,55.65,28.38,16.83,5.8,41.94,10.95,66.01,2.54Z"/>
  <path class="cls-2" d="m326.83,148.05c-2.49-.27-4.99-.54-7.47-.76-10.36-.95-22.28-1.32-32.13,3.15-12.48,5.67-20.64,18.24-29.28,31.54-1.75,2.69-3.56,5.48-5.39,8.17-17.28,25.45-37.47,42.34-59.99,50.21-11.08,3.87-22.24,5.38-32.86,5.38-16.88,0-32.45-3.79-44.34-7.89-14.85-5.12-28.73-12.16-42.08-19.84,23.14,54.83,77.4,93.32,140.65,93.32,84.27,0,152.59-68.32,152.59-152.59,0-3.82-.14-7.61-.42-11.36-2.57.67-5.22,1.2-7.97,1.54-10.72,1.33-21.18.21-31.31-.88Z"/>
  <circle class="cls-1" cx="37.33" cy="258.13" r="18.54"/>
  <circle class="cls-2" cx="18.98" cy="135.44" r="11.91"/>
  <circle class="cls-1" cx="387.27" cy="59.17" r="21.26"/>
  <circle class="cls-2" cx="403.11" cy="209" r="15.01"/>
</svg>
